<svg class="icon" viewBox="0 0 1025 1024" xmlns="http://www.w3.org/2000/svg" width="200.195" height="200"><defs><style/></defs><path d="M877.824 896c0-12.8-6.4-32-12.8-51.2-25.6-57.6-70.4-83.2-172.8-128-6.4-6.4-38.4-12.8-38.4-12.8-12.8-6.4-25.6-12.8-32-12.8v-25.6l-12.8-12.8c12.8-19.2 25.6-44.8 32-64v-6.4c19.2-12.8 32-38.4 38.4-64 12.8-19.2 12.8-44.8 12.8-76.8 0-25.6-12.8-51.2-25.6-64 0-32-6.4-70.4-6.4-96v-12.8c12.8-6.4 32-6.4 44.8-6.4 32 0 64 12.8 89.6 32 25.6 19.2 44.8 44.8 51.2 76.8 0 6.4 0 12.8 6.4 19.2 6.4 25.6 6.4 57.6 6.4 83.2 6.4 6.4 19.2 12.8 19.2 32 0 12.8-6.4 32-6.4 32 0 12.8-12.8 25.6-25.6 32 0 6.4 0 12.8-6.4 19.2-12.8 25.6-25.6 51.2-51.2 70.4v6.4c0 25.6-6.4 38.4 51.2 64s147.2 51.2 166.4 96c19.2 44.8 12.8 64 12.8 64l-140.8 6.4zm-76.8-25.6c25.6 57.6 12.8 89.6 12.8 89.6H1.024s-6.4-32 12.8-89.6c25.6-57.6 134.4-89.6 211.2-128 76.8-32 70.4-57.6 70.4-83.2v-12.8c-25.6-25.6-51.2-57.6-64-96 0-6.4-6.4-19.2-6.4-25.6-19.2-6.4-25.6-25.6-32-38.4-6.4-6.4-12.8-25.6-12.8-44.8 0-25.6 12.8-38.4 25.6-44.8v-6.4c0-32 0-83.2 6.4-108.8 0-6.4 6.4-19.2 6.4-25.6 12.8-38.4 32-70.4 64-96 32-25.6 76.8-38.4 115.2-38.4s83.2 12.8 115.2 38.4c32 25.6 57.6 57.6 64 96 0 6.4 6.4 19.2 6.4 25.6 6.4 32 6.4 76.8 6.4 108.8v6.4c12.8 6.4 19.2 19.2 25.6 44.8 0 19.2-6.4 38.4-12.8 44.8-6.4 19.2-12.8 38.4-32 38.4 0 6.4-6.4 19.2-6.4 25.6-12.8 38.4-38.4 70.4-64 96v12.8c0 32-6.4 51.2 70.4 83.2 96 38.4 204.8 76.8 230.4 128z"/></svg>