<svg class="icon" viewBox="0 0 1024 1024" xmlns="http://www.w3.org/2000/svg" width="200" height="200"><defs><style/></defs><path d="M898.2 3H118C55 3 0 58 0 121v788c0 55 55 110.2 118 110.2h788c63 0 118-55 118-118V121C1016.2 58 961 3 898.2 3zM442 170.6h142c12.2 0 21.2 11 19 23L583.8 292c-1.8 9.2-9.6 15.8-19 15.8H461c-9.4 0-17.2-6.6-19-15.8l-19.2-98.4c-2-12 7-23 19.2-23zm229.6 513.2L527.6 845c-7.6 8.6-21.2 8.6-29 0l-144-161.2c-4.4-5-6-12-4.2-18.4l90.6-308c2.6-8.2 10-14 18.6-14h106.8c8.6 0 16 5.8 18.6 14l90.6 308c1.8 6.4.2 13.4-4 18.4zm76-156.2l-100-36.6c-2.6-.8-4.6-3.2-5.6-6l-25-83c-2-6.6 4-12.6 10.6-11.2l84.6 18.2c2.8.8 5.4 2.6 6.4 5.6L759 516c2.8 7.2-4 14.4-11.4 11.6z"/></svg>